mtllib box_131072_64_131072_collision.mtl

g Mesh

usemtl Default

v -65536 0 -65536
vn -0.7071068 0 -0.7071068

v 65504 -32 -65504
vn 0.2705981 -0.9238795 -0.2705981

v -65504 -32 -65504
vn -0.2705981 -0.9238795 -0.2705981

v 65536 0 65536
vn 0.7071068 0 0.7071068

v 65504 32 -65504
vn 0.2705981 0.9238795 -0.2705981

v 65504 32 65504
vn 0.2705981 0.9238795 0.2705981

v -65536 0 65536
vn -0.7071068 0 0.7071068

v -65504 -32 65504
vn -0.2705981 -0.9238795 0.2705981

v 65504 -32 65504
vn 0.2705981 -0.9238795 0.2705981

v -65504 32 -65504
vn -0.2705981 0.9238795 -0.2705981

v -65504 32 65504
vn -0.2705981 0.9238795 0.2705981

v 65536 0 -65536
vn 0.7071068 0 -0.7071068

# 12 vertice(s).

f 8//8 9//9 4//4
f 11//11 4//4 6//6
f 10//10 7//7 11//11
f 5//5 1//1 10//10
f 2//2 4//4 9//9
f 7//7 3//3 8//8
f 4//4 5//5 6//6
f 1//1 2//2 3//3
f 8//8 4//4 7//7
f 11//11 7//7 4//4
f 10//10 1//1 7//7
f 5//5 12//12 1//1
f 2//2 12//12 4//4
f 7//7 1//1 3//3
f 4//4 12//12 5//5
f 1//1 12//12 2//2
f 8//8 3//3 2//2
f 8//8 2//2 9//9
f 6//6 5//5 10//10
f 6//6 10//10 11//11
# 60 indices; 20 primitives.

# 1 primitive groups.

# 1 parts.

