# Exported from Wings 3D 1.2
mtllib box_2048_64_2048.mtl
o cube1
#12 vertices, 10 faces
v -992.00000000 -32.00000000 992.00000000
v -992.00000000 32.00000000 992.00000000
v 992.00000000 32.00000000 992.00000000
v 992.00000000 -32.00000000 992.00000000
v -992.00000000 -32.00000000 -992.00000000
v -992.00000000 32.00000000 -992.00000000
v 992.00000000 32.00000000 -992.00000000
v 992.00000000 -32.00000000 -992.00000000
v -1024.00000000 0.0000000e+0 1024.00000000
v 1024.00000000 0.0000000e+0 1024.00000000
v -1024.00000000 0.0000000e+0 -1024.00000000
v 1024.00000000 0.0000000e+0 -1024.00000000
vt 0.0000000e+0 8.3266727e-17
vt 0.0000000e+0 0.50000000
vt 0.0000000e+0 0.52500000
vt 0.0000000e+0 0.55000000
vt 0.0000000e+0 0.57500000
vt 0.0000000e+0 0.60000000
vt 0.0000000e+0 0.60000000
vt 0.0000000e+0 0.62500000
vt 0.0000000e+0 0.65000000
vt 0.0000000e+0 0.67500000
vt 0.0000000e+0 0.70000000
vt 8.3266727e-17 0.50000000
vt 0.50000000 0.0000000e+0
vt 0.50000000 0.50000000
vt 0.50000000 0.50000000
vt 0.50000000 0.52500000
vt 0.50000000 0.55000000
vt 0.50000000 0.57500000
vt 0.50000000 0.60000000
vt 0.50000000 0.60000000
vt 0.50000000 0.62500000
vt 0.50000000 0.65000000
vt 0.50000000 0.67500000
vt 0.50000000 0.70000000
vt 0.50000000 0.50000000
vt 1.00000000 0.0000000e+0
vt 1.00000000 0.50000000
vn -0.27059805 -0.92387953 0.27059805
vn -0.27059805 0.92387953 0.27059805
vn 0.27059805 0.92387953 0.27059805
vn 0.27059805 -0.92387953 0.27059805
vn -0.27059805 -0.92387953 -0.27059805
vn -0.27059805 0.92387953 -0.27059805
vn 0.27059805 0.92387953 -0.27059805
vn 0.27059805 -0.92387953 -0.27059805
vn -0.70710678 0.0000000e+0 0.70710678
vn 0.70710678 0.0000000e+0 0.70710678
vn -0.70710678 0.0000000e+0 -0.70710678
vn 0.70710678 0.0000000e+0 -0.70710678
g cube1_cube1_auv
usemtl cube1_auv
s 1
f 1/4/1 4/17/4 10/18/10 9/5/9
f 1/13/1 5/25/5 8/12/8 4/1/4
f 2/7/2 9/5/9 10/18/10 3/20/3
f 3/26/3 7/27/7 6/14/6 2/13/2
f 6/11/6 11/10/11 9/23/9 2/24/2
f 7/4/7 12/3/12 11/16/11 6/17/6
f 8/19/8 12/21/12 10/8/10 4/6/4
f 9/23/9 11/10/11 5/9/5 1/22/1
f 10/8/10 12/21/12 7/22/7 3/9/3
f 11/16/11 12/3/12 8/2/8 5/15/5
