P2
64 64
255
137 147 161 174 179 177 176 176 170 165 159 153 143 138 130 117 102 85 72 64 57 54 52 51 52 57 69 80 90 99 109 127 143 162 174 186 195 200 206 212 216 216 210 202 200 202 202 206 206 209 208 202 191 180 166 151 142 137 128 122 119 117 116 119 144 155 162 172 179 177 176 176 172 165 157 153 145 136 125 110 93 74 61 54 52 50 48 46 47 52 65 79 90 100 111 128 144 162 174 187 194 198 204 209 208 207 202 199 194 193 195 195 195 196 198 195 186 173 156 139 131 127 122 116 113 114 115 121 145 157 166 170 177 181 180 179 175 167 158 152 145 135 122 103 83 64 53 47 45 42 41 41 43 47 60 75 87 99 112 129 144 159 172 187 193 195 202 207 205 202 198 196 192 189 190 187 184 184 186 186 179 165 150 134 122 119 116 110 107 106 112 118 146 161 171 177 182 189 190 187 180 171 160 153 145 132 120 101 78 58 48 43 40 36 34 37 40 44 56 68 83 96 112 129 145 158 170 184 189 193 201 207 208 207 202 198 194 190 187 183 180 175 177 175 169 154 140 128 118 112 111 107 104 99 105 116 151 166 180 188 192 198 201 197 188 174 164 155 147 130 113 95 73 54 44 38 36 33 32 34 38 43 52 61 73 89 107 126 141 153 164 175 180 190 200 206 210 211 207 202 200 195 186 181 178 173 171 166 159 147 131 121 114 110 109 108 104 101 105 119 161 177 187 194 199 207 208 202 191 175 166 158 149 132 109 88 69 53 42 36 34 32 31 33 39 45 51 55 64 79 96 115 131 143 156 164 170 182 193 201 208 210 209 207 203 196 184 177 173 171 169 162 151 141 127 114 109 110 113 114 111 110 114 127 165 182 193 199 204 210 210 203 192 177 166 161 150 135 112 90 71 57 48 41 37 34 32 36 42 48 54 56 61 73 85 100 115 130 145 154 161 172 185 195 205 209 208 208 202 194 183 172 168 168 166 157 144 132 122 109 103 107 112 117 117 120 126 136 166 182 194 202 208 209 206 199 191 183 172 163 152 134 117 97 77 63 56 50 41 36 33 38 44 50 57 58 62 74 82 92 102 118 133 145 157 169 182 191 200 208 209 204 198 193 186 174 168 168 164 151 134 120 112 102 95 99 106 114 117 121 131 140 163 177 190 199 206 208 204 197 192 187 181 171 157 138 119 102 84 68 61 57 49 39 33 37 44 51 60 61 65 75 82 88 93 105 121 138 154 167 180 189 197 205 206 198 193 191 187 178 171 168 159 142 125 109 101 93 86 86 93 103 113 118 129 141 155 167 181 191 201 206 205 202 198 195 188 180 166 147 126 110 93 76 67 61 55 45 37 38 44 51 60 62 67 74 78 84 89 98 116 132 147 164 178 187 196 203 204 197 193 190 186 177 171 167 155 138 120 103 91 85 80 76 79 88 99 108 120 137 150 159 172 186 198 205 210 210 209 205 194 186 175 157 136 118 102 87 77 66 54 46 39 40 46 50 56 61 69 75 81 86 91 100 114 127 141 159 173 184 193 202 206 200 195 191 186 178 172 168 157 141 123 106 91 81 76 70 66 74 86 98 112 127 143 155 168 181 192 202 210 213 214 211 202 194 182 167 147 128 111 96 84 74 59 45 39 40 45 51 57 64 76 84 89 95 101 106 111 124 135 147 163 179 188 198 204 201 196 193 191 186 178 172 159 143 125 109 95 83 74 66 59 62 76 91 105 119 138 151 164 174 184 192 202 209 211 212 208 202 193 175 154 136 118 103 86 77 66 54 44 41 45 54 59 66 79 91 97 104 109 112 114 121 130 137 154 173 183 194 200 203 200 198 196 192 184 174 159 139 120 105 92 80 70 61 54 53 63 80 96 109 130 145 156 165 173 180 188 198 205 211 211 208 199 183 160 144 128 112 96 79 67 60 51 44 44 52 59 65 78 94 101 110 115 117 119 121 134 139 151 168 178 187 196 202 204 202 197 193 185 173 155 132 111 94 81 70 61 52 45 44 52 66 84 98 122 135 144 153 163 168 175 186 198 209 215 212 204 189 168 151 139 124 107 88 70 61 55 49 47 51 58 67 79 95 104 115 121 126 129 129 140 146 153 165 175 184 193 199 204 206 199 191 184 171 150 126 103 82 66 55 46 39 34 34 44 57 72 89 118 128 133 139 150 158 164 174 187 201 213 216 206 192 176 158 144 129 113 95 77 66 59 57 55 53 58 67 79 95 107 118 127 134 137 136 145 153 161 170 178 186 194 196 201 206 202 192 182 167 142 117 94 70 51 41 33 26 24 28 39 54 66 82 112 118 122 128 137 148 157 168 179 195 208 213 204 191 177 160 145 129 118 101 81 71 66 62 59 56 60 70 82 98 112 122 132 138 142 146 155 164 173 178 183 191 197 199 201 206 205 195 181 164 137 111 84 62 44 32 23 17 18 25 37 52 65 79 101 108 113 120 129 141 154 166 178 192 205 208 200 189 178 165 147 131 119 103 82 71 70 66 61 61 64 73 87 102 116 128 139 147 151 159 168 179 186 189 190 196 200 200 203 207 206 197 181 162 136 107 81 58 43 30 20 15 17 26 38 50 59 71 91 96 104 112 123 135 151 166 180 188 198 201 196 186 177 166 152 135 118 102 80 67 70 69 68 68 71 78 93 106 120 133 142 155 164 172 181 191 195 197 197 199 203 200 201 201 200 195 179 155 131 107 81 59 43 32 23 19 18 25 36 46 53 61 77 84 95 109 120 134 150 167 181 191 196 193 188 180 171 161 151 133 113 96 79 65 66 66 69 72 78 85 98 110 126 135 146 158 169 181 189 196 198 199 201 204 206 203 201 197 192 186 173 148 126 106 83 62 44 32 26 23 20 23 32 39 45 51 63 74 89 109 124 138 153 170 186 194 194 191 185 176 165 151 143 130 111 92 74 63 62 64 67 72 83 93 107 118 131 137 149 158 169 183 194 201 204 204 205 208 208 209 208 201 192 182 169 147 127 107 83 60 41 25 19 19 21 23 29 36 38 43 64 77 94 111 128 143 156 170 185 191 192 188 181 172 163 149 138 127 110 89 73 61 59 62 68 71 82 96 111 125 132 137 146 155 171 185 195 206 209 207 209 211 212 213 214 206 195 181 164 145 125 104 81 59 39 20 10 11 16 21 24 33 38 40 73 88 104 118 132 146 157 169 181 188 187 183 179 174 168 154 141 125 111 94 78 65 57 57 64 68 79 91 108 126 130 134 146 159 172 186 197 212 214 211 213 213 215 215 211 203 192 177 158 139 120 101 79 59 41 22 9 6 11 15 18 28 39 46 82 98 114 126 137 147 156 169 180 185 184 183 181 179 172 160 146 125 109 99 85 73 65 60 62 69 78 93 110 125 130 135 142 158 174 191 202 212 217 215 215 214 213 213 207 197 183 166 148 128 109 94 76 59 41 22 9 4 6 10 16 27 42 54 91 105 118 131 141 152 158 169 183 186 186 186 186 182 175 161 145 125 107 98 92 84 76 70 71 78 85 97 114 125 132 140 142 153 172 190 200 208 215 217 217 211 204 199 192 183 169 153 136 116 95 80 68 54 37 17 5 1 3 9 17 28 43 59 93 105 117 128 140 152 161 173 186 195 195 191 186 178 169 156 140 123 109 102 100 95 86 80 82 86 97 109 117 125 135 143 145 153 168 184 193 200 212 213 209 201 190 181 175 167 156 140 120 101 84 72 57 40 24 11 3 1 1 7 20 34 49 66 96 103 113 125 137 152 167 182 193 200 199 191 182 172 160 150 133 122 116 109 105 102 94 91 94 99 109 118 121 124 133 141 147 152 162 175 181 186 198 201 194 181 171 164 161 153 143 129 108 87 71 60 47 33 23 15 10 5 1 6 22 40 56 73 100 105 113 127 141 157 174 188 195 198 195 187 180 172 160 150 136 127 123 116 111 107 104 101 105 112 123 125 126 125 132 143 149 155 162 168 171 172 181 183 175 163 155 147 145 138 129 118 100 78 60 48 38 29 26 25 18 9 6 11 25 44 62 78 109 113 122 136 154 169 181 191 197 196 189 184 181 176 168 156 142 134 125 119 118 116 116 114 116 122 131 135 132 130 131 139 142 152 161 165 166 162 164 166 157 147 139 130 124 119 113 106 92 73 54 41 32 26 26 30 27 20 19 25 35 50 70 87 119 126 137 151 166 180 190 194 196 195 189 183 179 175 168 160 149 139 132 131 131 130 129 125 122 120 128 135 133 131 131 133 132 142 153 155 153 151 150 151 146 135 125 116 106 105 99 93 82 69 53 37 27 24 26 31 36 37 35 40 50 64 80 95 126 136 147 160 173 184 191 194 191 187 186 182 175 172 168 162 154 147 144 144 143 144 140 136 133 125 126 130 130 128 126 126 121 132 142 144 143 146 143 137 132 122 112 106 100 98 94 86 79 70 56 38 27 25 29 37 49 54 53 56 66 77 91 104 136 146 157 168 178 183 186 190 189 183 179 176 171 169 167 164 160 154 150 148 148 150 146 143 139 133 131 129 130 130 123 119 118 125 131 132 134 139 139 132 126 118 111 106 99 94 90 88 82 72 57 42 32 30 35 46 56 62 67 70 76 87 105 119 147 157 171 180 182 180 182 187 188 183 175 166 164 163 162 158 156 156 152 149 149 151 147 146 146 145 144 138 134 132 127 122 118 118 121 123 123 124 127 127 124 123 119 113 102 93 87 84 80 71 57 45 36 35 43 54 61 68 75 79 87 101 117 131 159 167 178 184 186 183 178 177 178 174 166 158 153 153 153 148 148 151 152 150 147 145 142 145 147 151 155 151 146 143 136 120 118 117 119 121 122 120 119 122 122 123 121 114 104 94 86 82 79 71 59 50 41 39 46 57 65 71 77 85 99 115 129 140 166 174 182 186 185 183 178 173 171 166 159 152 147 148 147 141 141 145 146 143 146 152 151 157 160 158 157 155 151 149 142 127 125 126 122 124 127 123 121 125 124 124 120 114 107 95 83 78 73 66 60 56 50 47 50 58 66 71 80 95 112 127 141 151 164 172 179 183 183 182 177 169 165 159 149 140 140 142 140 140 144 146 145 145 153 160 160 166 172 170 165 165 163 160 150 137 131 127 122 126 133 138 135 133 132 126 118 113 107 97 87 80 72 69 63 60 58 57 58 61 70 81 93 107 125 142 152 156 164 169 175 179 181 181 175 164 156 149 141 133 131 135 139 143 150 151 153 156 160 165 168 175 184 183 173 170 167 163 152 143 136 125 118 123 130 141 142 142 142 133 120 112 108 108 99 88 83 77 69 64 64 63 63 68 76 89 106 122 139 154 163 164 161 166 170 172 178 180 173 161 150 143 139 132 128 132 140 146 152 158 161 166 168 172 177 187 196 198 185 176 170 161 149 142 134 126 118 120 129 143 146 147 147 143 131 120 113 114 111 100 91 81 74 67 65 64 65 71 82 96 115 132 144 154 161 162 156 160 164 167 172 174 172 164 151 142 137 131 128 131 140 147 152 161 166 173 178 183 192 204 210 211 198 187 179 166 147 136 131 125 123 122 130 144 148 154 154 152 139 125 119 117 115 105 91 81 73 67 65 67 69 78 92 107 120 132 142 150 155 158 153 154 158 163 167 168 169 163 151 142 136 132 129 132 143 152 157 166 176 184 190 197 205 213 216 214 206 195 186 171 151 138 137 136 132 134 137 144 150 161 159 155 143 133 127 122 117 104 88 76 69 69 72 76 81 85 98 113 121 128 136 143 148 154 153 151 152 157 162 163 163 159 151 143 139 136 135 136 146 158 165 174 188 198 206 210 212 216 216 216 211 201 190 176 158 144 142 144 146 152 151 152 157 165 169 161 152 143 134 126 117 102 89 79 73 75 79 83 88 92 101 116 123 126 131 137 146 153 154 149 145 148 150 151 151 150 146 141 138 138 138 142 152 163 173 185 196 206 213 215 214 214 213 216 218 205 192 180 169 158 152 152 157 166 169 170 169 172 177 169 159 149 138 129 121 110 96 85 82 85 86 87 88 92 102 114 121 125 129 135 142 150 154 148 138 136 140 142 142 140 139 136 136 138 140 145 155 165 177 189 199 209 213 214 214 215 214 216 217 207 195 187 174 170 162 162 167 174 179 181 180 178 180 176 169 157 144 134 125 118 108 95 90 89 86 85 86 89 100 112 119 125 132 137 143 149 147 141 131 125 130 136 138 137 134 131 132 136 141 146 155 167 176 185 196 207 212 212 212 213 213 216 217 211 202 196 184 181 172 173 177 187 189 187 187 186 182 179 173 164 147 136 125 118 113 103 95 89 85 83 83 88 99 113 122 129 136 142 147 151 134 129 123 118 119 125 129 131 129 126 128 132 138 143 150 164 176 184 192 200 207 211 214 214 216 220 221 219 214 205 193 187 184 184 187 196 197 198 192 188 183 176 173 165 150 139 128 114 108 102 95 90 87 84 85 91 103 118 128 135 141 144 145 142 121 116 115 117 117 117 118 119 118 116 117 123 132 141 151 167 183 192 197 203 206 213 216 216 220 225 228 227 223 215 205 195 192 190 192 201 205 206 201 193 186 179 177 171 154 142 130 115 105 98 93 86 83 82 89 98 109 120 131 139 144 144 138 131 108 107 110 114 112 106 102 102 102 100 102 110 124 142 157 174 190 201 208 211 212 215 218 220 224 228 234 232 227 220 213 204 199 191 192 201 208 214 214 206 198 189 182 176 158 142 133 123 109 100 93 84 75 75 84 98 110 120 128 138 141 142 135 122 101 98 98 100 96 89 86 86 87 87 90 101 119 140 159 175 190 204 213 216 217 220 221 222 222 225 231 231 226 217 211 207 206 195 194 203 211 219 221 216 209 198 190 180 165 148 139 131 118 105 93 83 72 70 79 96 111 122 129 137 142 139 132 119 96 89 85 84 81 78 78 80 79 79 87 103 120 138 160 177 189 202 213 216 217 218 220 218 217 220 228 231 225 213 207 205 207 202 201 207 214 221 223 219 214 208 202 190 173 156 145 134 123 108 93 79 68 67 76 92 109 123 127 132 137 135 126 116 90 78 72 69 68 69 73 79 82 82 91 107 124 142 162 178 188 199 211 217 218 218 218 215 214 215 222 228 223 212 204 206 207 211 210 211 217 223 224 224 222 216 210 201 186 169 154 139 129 115 96 80 70 69 75 86 102 117 120 120 125 126 119 111 84 70 61 57 56 60 69 78 85 90 98 111 126 145 163 178 188 197 206 215 218 216 212 213 214 214 215 221 222 211 205 208 208 214 214 217 223 227 227 229 231 224 216 209 199 180 165 151 139 126 106 85 77 76 80 88 100 110 114 112 115 118 113 106 76 65 56 51 50 55 69 81 90 98 105 115 128 146 162 175 186 195 201 207 213 211 207 211 215 216 212 214 214 204 202 202 206 212 219 223 230 233 229 232 236 232 224 211 203 192 179 165 149 135 117 98 87 87 88 92 99 106 109 108 109 110 107 97 70 62 56 52 49 53 65 80 89 99 108 119 132 146 158 167 177 188 193 194 199 202 203 207 210 209 205 203 201 195 194 196 206 215 224 228 232 236 234 236 239 237 233 221 206 198 189 176 159 145 129 113 102 100 98 97 101 107 107 107 107 104 98 88 65 58 55 55 55 56 65 77 84 91 102 115 130 142 151 156 161 172 179 182 185 189 193 196 198 196 194 192 188 185 187 194 208 222 230 231 233 237 238 239 239 240 235 226 215 205 197 186 173 159 144 131 121 112 108 104 106 112 110 107 106 99 89 80 67 61 57 60 65 66 69 77 82 87 96 110 123 136 145 147 148 157 162 168 171 171 175 178 181 180 181 179 176 177 183 192 209 223 230 230 233 234 235 238 239 241 234 225 219 213 210 200 188 176 161 142 133 126 119 113 111 114 114 106 101 94 81 74 72 69 67 72 78 80 79 81 87 93 99 110 123 135 143 143 144 149 151 154 156 153 154 158 162 162 163 162 162 168 174 187 206 217 223 225 229 229 230 235 238 242 239 228 221 221 221 215 205 192 177 158 143 138 132 124 118 115 113 106 99 94 83 73 74 74 75 81 91 94 93 90 95 103 108 115 126 136 142 138 138 143 144 143 143 138 136 140 145 145 143 146 148 153 161 179 198 207 215 222 229 228 227 232 235 241 241 234 227 225 230 230 221 208 193 176 161 153 144 133 124 119 115 109 102 98 90 79 74 74 77 85 97 105 105 101 103 112 118 123 130 135 135 131 131 135 137 134 131 126 123 128 133 132 130 132 133 137 149 166 186 199 211 220 228 226 227 231 236 240 240 236 233 233 238 242 237 227 211 195 182 171 158 143 131 124 118 111 105 101 94 82 71 70 76 86 101 111 113 111 111 118 125 128 129 132 129 126 125 127 129 125 118 114 113 114 117 117 115 116 120 124 137 151 168 186 203 216 224 226 227 232 239 244 241 238 240 243 247 251 250 244 230 214 201 188 172 155 141 131 123 114 103 99 95 85 69 66 72 87 103 115 120 120 121 123 129 131 128 128 126 124 121 117 117 114 108 104 103 102 100 100 100 100 106 113 125 139 155 173 190 206 217 223 227 234 240 245 243 241 244 248 249 252 253 249 240 227 213 198 180 164 148 135 125 115 103 95 89 83 72 73 79 94 111 122 127 130 133 133 134 135 130 127 125 124 119 110 106 101 96 93 93 91 88 88 89 89 90 102 116 130 149 164 179 192 205 216 226 233 238 243 243 240 242 248 250 251 250 248 243 235 221 204 187 169 151 135 120 109 98 91 86 80 83 90 97 110 124 134 141 141 143 145 144 142 135 130 128 127 121 108 98 90 84 79 79 80 79 80 80 80 81 94 109 126 144 160 174 185 197 210 223 230 234 238 240 237 238 246 250 253 252 248 243 237 227 210 193 172 153 135 118 105 93 88 88 85 102 109 121 130 139 149 155 155 153 153 153 147 139 133 132 130 123 108 93 83 75 68 64 68 70 73 74 76 80 91 105 123 142 158 172 182 193 206 218 227 231 233 232 229 231 239 244 248 249 245 237 230 222 212 198 176 154 134 118 108 101 94 94 96 118 126 139 150 157 162 167 167 162 159 158 150 140 134 132 129 121 105 89 76 67 61 57 59 62 67 73 78 82 93 105 123 142 159 173 181 191 204 215 224 228 228 224 219 221 227 233 234 237 235 228 219 211 204 192 174 155 138 122 116 113 108 104 105 